<svg width="48" height="48" viewBox="0 0 48 48" fill="none" xmlns="http://www.w3.org/2000/svg">
<path d="M32.494 15.522C34.74 17.7718 36.0015 20.8209 36.0015 24C36.0015 27.179 34.74 30.2281 32.494 32.478" stroke="#FF8904" stroke-width="4" stroke-linecap="round" stroke-linejoin="round"/>
<path d="M38.15 9.86597C41.8958 13.616 43.9998 18.6996 43.9998 24C43.9998 29.3003 41.8958 34.3839 38.15 38.134" stroke="#FF8904" stroke-width="4" stroke-linecap="round" stroke-linejoin="round"/>
<path d="M9.84998 38.134C6.10422 34.3839 4.00024 29.3003 4.00024 24C4.00024 18.6996 6.10422 13.616 9.84998 9.86597" stroke="#FF8904" stroke-width="4" stroke-linecap="round" stroke-linejoin="round"/>
<path d="M15.506 32.478C13.26 30.2281 11.9985 27.179 11.9985 24C11.9985 20.8209 13.26 17.7718 15.506 15.522" stroke="#FF8904" stroke-width="4" stroke-linecap="round" stroke-linejoin="round"/>
<path d="M24 28C26.2091 28 28 26.2091 28 24C28 21.7909 26.2091 20 24 20C21.7909 20 20 21.7909 20 24C20 26.2091 21.7909 28 24 28Z" stroke="#FF8904" stroke-width="4" stroke-linecap="round" stroke-linejoin="round"/>
</svg>
