<svg width="40" height="40" viewBox="0 0 40 40" fill="none" xmlns="http://www.w3.org/2000/svg">
<path d="M20 33.3334V36.6667" stroke="#00D3F2" stroke-width="3.33333" stroke-linecap="round" stroke-linejoin="round"/>
<path d="M20 3.33337V6.66671" stroke="#00D3F2" stroke-width="3.33333" stroke-linecap="round" stroke-linejoin="round"/>
<path d="M28.333 33.3334V36.6667" stroke="#00D3F2" stroke-width="3.33333" stroke-linecap="round" stroke-linejoin="round"/>
<path d="M28.333 3.33337V6.66671" stroke="#00D3F2" stroke-width="3.33333" stroke-linecap="round" stroke-linejoin="round"/>
<path d="M3.33301 20H6.66634" stroke="#00D3F2" stroke-width="3.33333" stroke-linecap="round" stroke-linejoin="round"/>
<path d="M3.33301 28.3334H6.66634" stroke="#00D3F2" stroke-width="3.33333" stroke-linecap="round" stroke-linejoin="round"/>
<path d="M3.33301 11.6666H6.66634" stroke="#00D3F2" stroke-width="3.33333" stroke-linecap="round" stroke-linejoin="round"/>
<path d="M33.333 20H36.6663" stroke="#00D3F2" stroke-width="3.33333" stroke-linecap="round" stroke-linejoin="round"/>
<path d="M33.333 28.3334H36.6663" stroke="#00D3F2" stroke-width="3.33333" stroke-linecap="round" stroke-linejoin="round"/>
<path d="M33.333 11.6666H36.6663" stroke="#00D3F2" stroke-width="3.33333" stroke-linecap="round" stroke-linejoin="round"/>
<path d="M11.667 33.3334V36.6667" stroke="#00D3F2" stroke-width="3.33333" stroke-linecap="round" stroke-linejoin="round"/>
<path d="M11.667 3.33337V6.66671" stroke="#00D3F2" stroke-width="3.33333" stroke-linecap="round" stroke-linejoin="round"/>
<path d="M30.0003 6.66663H10.0003C8.15938 6.66663 6.66699 8.15901 6.66699 9.99996V30C6.66699 31.8409 8.15938 33.3333 10.0003 33.3333H30.0003C31.8413 33.3333 33.3337 31.8409 33.3337 30V9.99996C33.3337 8.15901 31.8413 6.66663 30.0003 6.66663Z" stroke="#00D3F2" stroke-width="3.33333" stroke-linecap="round" stroke-linejoin="round"/>
<path d="M24.9997 13.3334H14.9997C14.0792 13.3334 13.333 14.0796 13.333 15V25C13.333 25.9205 14.0792 26.6667 14.9997 26.6667H24.9997C25.9201 26.6667 26.6663 25.9205 26.6663 25V15C26.6663 14.0796 25.9201 13.3334 24.9997 13.3334Z" stroke="#00D3F2" stroke-width="3.33333" stroke-linecap="round" stroke-linejoin="round"/>
</svg>
