<svg width="48" height="48" viewBox="0 0 48 48" fill="none" xmlns="http://www.w3.org/2000/svg">
<path d="M32 42V38C32 35.8783 31.1571 33.8434 29.6569 32.3431C28.1566 30.8429 26.1217 30 24 30H12C9.87827 30 7.84344 30.8429 6.34315 32.3431C4.84285 33.8434 4 35.8783 4 38V42" stroke="#05DF72" stroke-width="4" stroke-linecap="round" stroke-linejoin="round"/>
<path d="M32 6.2561C33.7155 6.70084 35.2348 7.70263 36.3194 9.10423C37.4039 10.5058 37.9924 12.2279 37.9924 14.0001C37.9924 15.7723 37.4039 17.4944 36.3194 18.896C35.2348 20.2976 33.7155 21.2994 32 21.7441" stroke="#05DF72" stroke-width="4" stroke-linecap="round" stroke-linejoin="round"/>
<path d="M44 42V38C43.9987 36.2275 43.4087 34.5056 42.3227 33.1046C41.2368 31.7037 39.7163 30.7031 38 30.26" stroke="#05DF72" stroke-width="4" stroke-linecap="round" stroke-linejoin="round"/>
<path d="M18 22C22.4183 22 26 18.4183 26 14C26 9.58172 22.4183 6 18 6C13.5817 6 10 9.58172 10 14C10 18.4183 13.5817 22 18 22Z" stroke="#05DF72" stroke-width="4" stroke-linecap="round" stroke-linejoin="round"/>
</svg>
