<svg width="48" height="48" viewBox="0 0 48 48" fill="none" xmlns="http://www.w3.org/2000/svg">
<path d="M32 26.0005L42.446 32.9645C42.5966 33.0647 42.7715 33.1222 42.9522 33.1309C43.1329 33.1395 43.3125 33.099 43.472 33.0136C43.6315 32.9282 43.7648 32.8012 43.8578 32.646C43.9508 32.4909 43.9999 32.3134 44 32.1325V15.7405C44.0001 15.5646 43.9537 15.3917 43.8656 15.2394C43.7774 15.0871 43.6507 14.9608 43.4981 14.8731C43.3456 14.7855 43.1726 14.7396 42.9966 14.7402C42.8207 14.7408 42.648 14.7878 42.496 14.8765L32 21.0005" stroke="#00D3F2" stroke-width="4" stroke-linecap="round" stroke-linejoin="round"/>
<path d="M28 12H8C5.79086 12 4 13.7909 4 16V32C4 34.2091 5.79086 36 8 36H28C30.2091 36 32 34.2091 32 32V16C32 13.7909 30.2091 12 28 12Z" stroke="#00D3F2" stroke-width="4" stroke-linecap="round" stroke-linejoin="round"/>
</svg>
