<svg width="40" height="40" viewBox="0 0 40 40" fill="none" xmlns="http://www.w3.org/2000/svg">
<path d="M35.0003 26.6666H28.3337C27.4132 26.6666 26.667 27.4128 26.667 28.3333V35C26.667 35.9204 27.4132 36.6666 28.3337 36.6666H35.0003C35.9208 36.6666 36.667 35.9204 36.667 35V28.3333C36.667 27.4128 35.9208 26.6666 35.0003 26.6666Z" stroke="#FF8904" stroke-width="3.33333" stroke-linecap="round" stroke-linejoin="round"/>
<path d="M11.6663 26.6666H4.99967C4.0792 26.6666 3.33301 27.4128 3.33301 28.3333V35C3.33301 35.9204 4.0792 36.6666 4.99967 36.6666H11.6663C12.5868 36.6666 13.333 35.9204 13.333 35V28.3333C13.333 27.4128 12.5868 26.6666 11.6663 26.6666Z" stroke="#FF8904" stroke-width="3.33333" stroke-linecap="round" stroke-linejoin="round"/>
<path d="M23.3333 3.33337H16.6667C15.7462 3.33337 15 4.07957 15 5.00004V11.6667C15 12.5872 15.7462 13.3334 16.6667 13.3334H23.3333C24.2538 13.3334 25 12.5872 25 11.6667V5.00004C25 4.07957 24.2538 3.33337 23.3333 3.33337Z" stroke="#FF8904" stroke-width="3.33333" stroke-linecap="round" stroke-linejoin="round"/>
<path d="M8.33301 26.6667V21.6667C8.33301 21.2246 8.5086 20.8007 8.82116 20.4882C9.13372 20.1756 9.55765 20 9.99967 20H29.9997C30.4417 20 30.8656 20.1756 31.1782 20.4882C31.4907 20.8007 31.6663 21.2246 31.6663 21.6667V26.6667" stroke="#FF8904" stroke-width="3.33333" stroke-linecap="round" stroke-linejoin="round"/>
<path d="M20 20V13.3334" stroke="#FF8904" stroke-width="3.33333" stroke-linecap="round" stroke-linejoin="round"/>
</svg>
