<svg width="48" height="48" viewBox="0 0 48 48" fill="none" xmlns="http://www.w3.org/2000/svg">
<path d="M18 6H10C7.79086 6 6 7.79086 6 10V18C6 20.2091 7.79086 22 10 22H18C20.2091 22 22 20.2091 22 18V10C22 7.79086 20.2091 6 18 6Z" stroke="#C27AFF" stroke-width="4" stroke-linecap="round" stroke-linejoin="round"/>
<path d="M14 22V30C14 31.0609 14.4214 32.0783 15.1716 32.8284C15.9217 33.5786 16.9391 34 18 34H26" stroke="#C27AFF" stroke-width="4" stroke-linecap="round" stroke-linejoin="round"/>
<path d="M38 26H30C27.7909 26 26 27.7909 26 30V38C26 40.2091 27.7909 42 30 42H38C40.2091 42 42 40.2091 42 38V30C42 27.7909 40.2091 26 38 26Z" stroke="#C27AFF" stroke-width="4" stroke-linecap="round" stroke-linejoin="round"/>
</svg>
